<?xml version="1.0" standalone="no"?>
<!DOCTYPE svg PUBLIC "-//W3C//DTD SVG 1.1//EN" "http://www.w3.org/Graphics/SVG/1.1/DTD/svg11.dtd" >
<svg xmlns="http://www.w3.org/2000/svg">
<metadata></metadata>
<defs>
<font id="peacenow_basicpeacenow_basic" horiz-adv-x="1024" >
<font-face units-per-em="2048" ascent="1638" descent="-410" />
<missing-glyph horiz-adv-x="500" />
<glyph horiz-adv-x="2048" />
<glyph horiz-adv-x="2048" />
<glyph unicode="&#xd;" />
<glyph unicode=" " />
<glyph unicode="0" horiz-adv-x="913" d="M-45 903q0 258 90 432q102 199 301 246q23 6 47.5 8t50.5 2q203 0 320 -235q106 -213 106 -522q0 -299 -94 -512q-104 -238 -284 -269q-37 -4 -54 -4q-205 0 -348 273q-135 256 -135 581zM217 715q0 -160 11.5 -230.5t33.5 -105.5q37 -57 86 -95t107 -38q139 41 186 243 q27 117 27 373q0 238 -59.5 375t-182.5 137q-20 0 -31 -2q-106 -14 -151 -242q-14 -76 -25 -227q0 -53 -1 -100t-1 -88z" />
<glyph unicode="1" horiz-adv-x="544" d="M6 1120q0 51 41 109q31 43 96 94q51 59 103 119q78 86 160 110q68 18 86 -153q12 -121 12 -596v-238q0 -205 -12.5 -315.5t-55.5 -167.5q-10 -4 -23.5 -6t-23.5 -2q-66 0 -89.5 81t-23.5 232q0 63 6.5 200.5t6.5 200.5q0 106 -12.5 168t-45.5 88q-25 18 -59 19 q-10 0 -34.5 -2t-39.5 -2q-27 0 -45 5t-41 23q-6 20 -6 33z" />
<glyph unicode="2" horiz-adv-x="856" d="M2 186q0 76 76 195q68 104 184 237q6 0 90 82q111 106 172 203q92 141 92 260q0 29 -2 45.5t-12 42.5q-25 72 -72 101.5t-110 29.5q-51 0 -91 -13t-67 -34q-16 -16 -74 -100q-35 -51 -73 -51q-29 0 -78 24q-6 35 -6 64q0 150 139 250q117 84 244 84q160 0 282.5 -127 t122.5 -287v-23q-4 -16 -4 -24q-23 -170 -176 -385q-160 -197 -180 -225q-39 -55 -58.5 -96.5t-19.5 -67.5q0 -61 186.5 -83t247.5 -102q0 -84 -92 -120q-78 -31 -234 -31q-76 0 -148.5 5t-165.5 15.5t-133 44t-40 86.5z" />
<glyph unicode="3" horiz-adv-x="847" d="M6 391q0 35 4 51q20 14 41 15q41 0 153.5 -108.5t188.5 -108.5q41 0 79 22.5t79 75.5q27 35 42 78t15 78q0 88 -69 174q-59 76 -156 131q-45 27 -63.5 49t-18.5 45q0 35 123 125t123 172q0 23 -2 35t-15 35q-51 109 -135 108q-61 0 -141 -53q-57 -39 -152 -127 q-41 25 -60 54.5t-19 66.5q0 98 118.5 188t249.5 90q96 0 160 -55q113 -94 162 -184q41 -74 41 -152q0 -49 -17 -109q-39 -141 -39 -169q0 -48 27 -99q84 -156 84 -307q0 -135 -67.5 -245.5t-190.5 -180.5q-41 -25 -83 -35t-89 -10q-145 0 -259 107.5t-114 242.5z" />
<glyph unicode="4" horiz-adv-x="905" d="M2 512q0 76 53 203q12 31 78 131q166 258 223 373q82 168 99 196q76 135 131 150q12 4 35 4q59 0 79.5 -68.5t20.5 -200.5q0 -68 -3 -179t-3 -113q0 -96 3 -136.5t17.5 -120t72.5 -138t58 -81.5q0 -25 -25.5 -67.5t-86.5 -114.5q-23 -125 -52 -192q-35 -84 -77 -84 q-25 0 -53.5 33.5t-59.5 99.5q-27 188 -268.5 194.5t-241.5 110.5zM293 780q0 -45 26.5 -80t77.5 -47q10 -2 18.5 -2h10.5q43 0 66.5 36t23.5 85q0 59 -28.5 107.5t-73.5 48.5q-49 0 -85 -46t-36 -102z" />
<glyph unicode="5" horiz-adv-x="880" d="M2 426q41 33 82 33q55 0 154.5 -103.5t162.5 -103.5q43 0 88 31q55 39 111 114q18 25 26.5 55.5t8.5 69.5q0 123 -82 232.5t-191 109.5q-18 0 -29 -2t-132 -69q-51 -29 -86 -29q-29 0 -52.5 18.5t-39.5 61.5q-2 6 -5.5 18t-3.5 39q0 66 13 152q16 82 22 127 q49 276 55 295q37 113 304 112q31 0 63.5 2t63.5 4q94 0 141 -16q70 -25 69 -84q0 -18 -6 -37q-14 -53 -51 -71.5t-90 -18.5q-14 0 -50 2t-54 2q-55 0 -92 -12t-68 -51q-59 -74 -60 -121q0 -53 113 -92q297 -103 381 -232q39 -61 58.5 -130.5t19.5 -147.5 q0 -143 -64.5 -273.5t-181.5 -206.5q-96 -63 -205 -63q-156 0 -274.5 114.5t-118.5 270.5z" />
<glyph unicode="6" horiz-adv-x="905" d="M6 807q0 264 78 463q104 264 322 315q35 8 79 8q135 0 233.5 -90t98.5 -209q0 -26 -6 -55q-18 -16 -43 -16q-37 0 -142.5 80.5t-168.5 80.5q-35 0 -71 -20.5t-69 -63.5q-59 -78 -59 -126q0 -63 100 -95q25 -8 220 -43q137 -27 217 -166q72 -127 71 -301 q0 -129 -44 -243.5t-128 -184.5q-119 -98 -237 -98q-168 0 -291 179t-154 458q-6 53 -6 127zM246 563q0 -117 59.5 -209t159.5 -92q33 0 70 12q78 27 114.5 85.5t36.5 136.5q0 119 -72.5 219t-173.5 100q-29 0 -51 -8q-70 -23 -106.5 -89.5t-36.5 -154.5z" />
<glyph unicode="7" horiz-adv-x="831" d="M4 1427q0 41 35 76q25 25 256 60q8 2 26.5 2h32.5q145 0 258 -19q164 -27 176 -80q4 -20 5 -32q0 -59 -68 -185q-115 -213 -145 -278q-115 -246 -174 -508l-58 -316q-20 -111 -69 -110q-27 0 -80 29q-39 70 -39 172q0 154 84 397q23 66 164 416q20 49 32.5 92t12.5 69 q0 63 -63.5 85t-219.5 22q-74 0 -120 31.5t-46 76.5z" />
<glyph unicode="8" horiz-adv-x="864" d="M2 510q0 121 57 233q18 45 25.5 88t7.5 97q0 61 -15.5 170.5t-15.5 150.5q0 106 45 176q55 86 193 148q66 16 131 16q180 0 266 -145q63 -106 64 -266q-1 -94 -19 -127q-16 -88 -16 -148q0 -119 78 -248q27 -68 26 -151q0 -147 -75 -264q-92 -141 -267 -187 q-43 -12 -88 -12q-162 0 -279.5 140.5t-117.5 328.5zM205 516q0 -106 55 -182q63 -86 166 -86q17 0 27 2q78 8 116.5 62.5t38.5 131.5q0 111 -61 203q-68 100 -158 101q-12 0 -37 -5q-72 -16 -109.5 -80.5t-37.5 -146.5zM258 1208q0 -68 35 -113.5t100 -45.5q15 0 23 2 q68 8 102.5 52t34.5 103q0 68 -43 119t-115 51q-66 0 -101.5 -49t-35.5 -119z" />
<glyph unicode="9" horiz-adv-x="905" d="M4 1075q0 180 81 323.5t224 178.5q49 12 97 12q207 0 335 -219q123 -209 123 -502q0 -109 -18 -213q-41 -225 -90 -336q-76 -168 -219 -241q-37 -20 -80 -30.5t-80 -10.5q-137 0 -231.5 107.5t-94.5 238.5q27 18 58 18q37 0 176 -102q68 -49 114 -49q43 0 79 24.5 t79 87.5q20 68 21 111q0 76 -115 90q-174 23 -250 68q-102 61 -155.5 180t-53.5 264zM203 1073q0 -106 50 -179t146 -73q34 0 50 4q86 16 129 86t43 162q0 117 -57.5 209t-143.5 92q-20 0 -51 -10q-80 -31 -123 -112t-43 -179z" />
<glyph unicode="A" horiz-adv-x="1064" d="M-4 139q0 131 53 336q47 178 121 365q53 131 178 540q43 137 129 138q68 0 117 -80q35 -57 92 -228q98 -295 119 -348q115 -311 174 -516q35 -119 45 -207q-4 -1 -9 -1q-76 0 -198 167q-135 184 -297 184q-205 0 -293 -131q-117 -174 -231 -219zM367 899q0 -43 35 -83.5 t96 -63.5q18 -6 32 -7q29 0 43.5 23t14.5 59q0 67 -39 123q-32 46 -74 45q-10 0 -20 -2q-88 -20 -88 -94z" />
<glyph unicode="B" horiz-adv-x="995" d="M2 1083q0 207 39 332q49 156 160.5 181.5t214.5 25.5q244 0 356 -170q102 -153 102 -446q0 -16 58 -289q29 -135 29 -225q0 -158 -64 -261q-78 -127 -262 -188q-47 -12 -128 -23.5t-161 -11.5q-76 0 -137.5 13.5t-97.5 44.5q-47 41 -65.5 88t-18.5 108q0 31 14 156 q8 72 8 104v25q0 14 -4 43q-12 88 -18 141q-25 203 -25 352zM229 473q0 -39 13 -80q25 -82 97.5 -121t168.5 -39q43 1 84 7q88 51 134 124.5t46 147.5q0 92 -68.5 155.5t-191.5 63.5q-39 0 -110.5 -13t-122 -83t-50.5 -162zM238 1202q0 -86 61 -157.5t152 -71.5q55 0 118 33 q70 37 104 86t34 102q0 78 -71 136.5t-171 58.5q-45 0 -102.5 -15.5t-91 -63.5t-33.5 -108z" />
<glyph unicode="C" horiz-adv-x="1064" d="M0 768q0 266 55 422q70 195 250 321q70 49 142.5 73t146.5 24q143 0 258 -88t154 -228q-8 -2 -25 -2q-45 0 -252 94q-98 45 -172 46q-80 0 -164 -50q-150 -90 -192 -245q-27 -96 -27 -344q0 -221 45 -347q61 -168 217 -223q84 -31 152 -31q70 0 241 142q88 72 199 86 q0 -168 -145.5 -285t-327.5 -117q-84 0 -162 31q-145 57 -266 268q-127 221 -127 453z" />
<glyph unicode="D" horiz-adv-x="1114" d="M-2 961q0 369 28.5 483.5t147.5 150.5q41 12 81 17.5t95 5.5q231 0 408 -113q232 -149 291 -456q24 -124 24 -241v-9q0 -238 -92 -418q-100 -195 -303 -315q-59 -16 -163.5 -35t-188.5 -19q-57 0 -97.5 6.5t-74.5 24.5q-94 47 -124 168t-30 336v214t-2 200zM215 770 q0 -231 66 -369q78 -163 233 -163h2q21 0 31 2q129 12 192 116q57 94 58 248q0 252 -125 523.5t-236 271.5q-88 0 -154.5 -195.5t-66.5 -433.5z" />
<glyph unicode="E" horiz-adv-x="917" d="M0 530q0 43 2 140.5t2 148.5q0 254 12 398q31 346 119 389q8 4 136 20t235 16q145 0 236.5 -31t91.5 -114q-41 -10 -275 -45q-174 -27 -252 -63q-110 -53 -110 -152q0 -14 4 -47q27 -141 180 -184q135 -23 270 -43q139 -31 140 -144q-217 -43 -433 -84 q-172 -47 -172 -186q0 -47 15 -103q41 -168 262 -206q207 -29 416 -56q-8 -55 -105 -114q-123 -76 -289 -76q-74 0 -144.5 13t-162.5 46q-109 39 -147 170q-31 102 -31 307z" />
<glyph unicode="F" horiz-adv-x="851" d="M0 670q0 186 27.5 425.5t146.5 362.5q111 113 289 112q157 0 350 -87q-23 -117 -241 -130.5t-287.5 -92t-69.5 -158.5q0 -96 102 -168q94 -66 234 -86q78 -10 125 -35t47 -53q0 -33 -61 -66q-39 -20 -131.5 -28.5t-153.5 -36.5q-137 -63 -158 -240q-31 -250 -61 -307 q-63 18 -107 156q-51 160 -51 432z" />
<glyph unicode="G" horiz-adv-x="1236" d="M2 805q0 324 154 561q168 258 432 258q174 0 313 -111q127 -102 168 -239q-16 0 -274 115q-129 57 -220 57q-82 0 -153.5 -34t-140.5 -116q-33 -33 -84 -233q-39 -152 -39 -283q0 -66 8 -127t29 -123q53 -162 182 -256q119 -88 260 -88q152 0 256 105q74 74 74 139 q0 49 -47 105q-31 37 -115 106q-59 51 -60 96q0 41 45.5 65.5t118.5 24.5q43 0 92 -12q102 -25 149.5 -93.5t47.5 -168.5q0 -125 -68.5 -251t-171.5 -187q-90 -53 -178 -81t-166 -28q-119 0 -221 55.5t-198.5 164t-144.5 259t-48 320.5z" />
<glyph unicode="H" horiz-adv-x="1097" d="M-2 471q0 63 3 167.5t3 111.5q0 211 6 329q14 291 60 371q45 -14 84 -147q49 -168 96 -234q88 -123 256 -123q291 0 323.5 195.5t92.5 308.5q82 -27 112 -115q25 -70 25 -211q0 -104 -2 -176t-4 -133q0 -18 2 -98t2 -135q0 -143 -14.5 -257t-55.5 -188q-51 16 -80 178 q-37 211 -80 285q-86 150 -276 150q-207 0 -299 -129q-63 -88 -82.5 -272.5t-33.5 -211.5q-82 25 -110 108t-28 226z" />
<glyph unicode="I" horiz-adv-x="176" d="M-4 1272q0 100 8 141t41 94q55 -29 73 -111.5t17 -242.5v-31v-26v-25v-22q0 -37 -1 -75t-2 -77v-23v-700q-14 -2 -25 -2h-15q-59 0 -75.5 49t-16.5 228v157.5t2 179.5q0 178 -2 285t-4 201z" />
<glyph unicode="J" horiz-adv-x="675" d="M2 354q0 25 6 54q16 -4 213 -68q70 -23 103 -23q84 0 124.5 93.5t40.5 347.5q0 154 -3 285t-5 272q0 84 10.5 130t40.5 99q43 -23 60.5 -122t23 -293.5t5.5 -589.5q0 -164 -103 -310q-90 -129 -182 -149q-31 -8 -68 -8q-117 0 -191.5 84t-74.5 198z" />
<glyph unicode="K" horiz-adv-x="983" d="M2 645v148q0 158 10 319q18 281 56 358q84 -27 147.5 -188.5t157.5 -161.5q90 0 223 166q143 180 278 207q-16 -63 -149 -250q-117 -164 -117 -299q0 -72 27 -152.5t239 -400.5q72 -109 72 -217v-29q-4 -20 -4 -30q-170 35 -301 340q-63 152 -180 186q-43 12 -74 12 q-121 0 -180 -256q-39 -172 -74 -237q-63 20 -94 112q-37 109 -37 373z" />
<glyph unicode="L" horiz-adv-x="753" d="M0 918q0 238 12.5 393t46.5 231q84 -27 111 -166q20 -106 20 -379v-241q0 -379 80 -428q203 -31 445 -99q-12 -82 -86 -112q-57 -25 -166 -25q-45 0 -92 2t-92 4q-229 0 -240.5 136.5t-22.5 259.5q-16 90 -16 424z" />
<glyph unicode="M" horiz-adv-x="1359" d="M31 461q0 94 5 401t5 475q0 88 25.5 144.5t85.5 56.5q35 0 81 -24.5t78 -83.5q45 -80 80 -233t72 -314q72 -236 190 -267q25 -6 49 -6q88 0 144 105q16 33 112 403q53 209 116 323.5t118 114.5h1q62 0 93 -153q31 -160 31 -625q0 -236 -16.5 -401.5t-57.5 -241.5 q-131 41 -145.5 261t-116.5 220q-121 0 -152 -240.5t-133 -285.5q-23 -10 -47 -10q-63 0 -96 131q-82 319 -162 360q-29 14 -55 15q-80 0 -119 -178q-53 -248 -67 -273q-76 23 -97.5 82t-21.5 244z" />
<glyph unicode="N" horiz-adv-x="1089" d="M-2 958q0 223 22 349q37 200 122 200h1q18 0 43 -11t121 -191q137 -256 187 -338q115 -188 186 -211q43 -14 78 -15q123 0 129 289t55 383q53 -31 72.5 -82t19.5 -129q0 -33 -9 -152.5t-9 -177.5q0 -94 14 -182q18 -102 19 -219q0 -166 -37 -283.5t-107 -117.5 q-31 0 -71 30q-23 18 -117 199q-121 229 -180 322q-111 170 -185 180q-10 2 -30 2q-129 0 -132.5 -293t-56.5 -387q-80 27 -110 160q-23 98 -23 288v124t2 126q-2 25 -3 56.5t-1 80.5z" />
<glyph unicode="O" horiz-adv-x="1245" d="M2 702q0 350 94 568q121 276 387 327q20 4 47 6.5t52 2.5q250 0 436 -209t186 -477q0 -193 -24 -320q-37 -186 -131 -319q-117 -164 -326 -256q-20 -2 -36.5 -3.5t-27.5 -1.5q-268 0 -462.5 203t-194.5 479zM274 395q127 -174 363 -174q211 0 319 141q96 127 97 332 q0 264 -140 490q-149 239 -340 239h-2q-174 0 -295 -202q-112 -188 -112 -433q0 -242 110 -393z" />
<glyph unicode="P" d="M2 514v123.5t2 126.5q0 49 -1 94t-1 88q0 215 29 342q43 188 147 219q51 16 97.5 22.5t105.5 6.5q244 0 424 -144.5t180 -344.5q0 -81 -41 -173q-80 -170 -223 -229q-188 -49 -301 -78q-176 -47 -219 -274q-29 -160 -66 -227q-80 25 -110 157q-23 98 -23 291zM229 1053 q0 -18 4.5 -42t10.5 -50q23 -74 51 -105q57 -61 174 -61q35 0 55.5 2t69.5 12q92 47 143 124t51 154q0 96 -69 162q-78 72 -205 72q-37 0 -109.5 -13.5t-124 -86t-51.5 -168.5z" />
<glyph unicode="Q" horiz-adv-x="1269" d="M2 772q0 285 170 549q154 240 309 278q55 14 117 15q233 0 418 -215q174 -203 209 -477q4 -18 4 -38v-38q0 -92 -23 -193q-35 -129 -67 -256q-10 -57 -12.5 -93t-2.5 -87q0 -47 6.5 -100.5t6.5 -59.5q0 -23 -13.5 -28.5t-60.5 -5.5h-63.5t-75.5 2h-27q-465 0 -623 98 q-168 104 -251 471q-20 84 -21 178zM195 745q0 -201 62 -337t179 -136q70 0 156 60q322 131 379 201.5t57 322.5q0 225 -113 389q-125 180 -323 180q-184 0 -297 -221q-100 -197 -100 -459z" />
<glyph unicode="R" horiz-adv-x="1093" d="M2 641v131t2 139q0 395 66 521q51 98 200 98q37 0 101.5 -3t70.5 -3q287 0 444.5 -93.5t157.5 -277.5q0 -72 -32 -176q-45 -135 -119 -336q-37 -100 -37 -127q0 -25 29 -68q94 -139 170 -366q-35 -14 -70 -14q-88 0 -166 124q-68 121 -133 244q-90 143 -201 170 q-55 14 -102 14q-129 0 -160 -178q-49 -289 -85 -360q-88 29 -112 153.5t-24 407.5zM238 1085q0 -55 32.5 -110t91 -81t132.5 -26q68 0 145 21q68 25 109 57q72 57 71 139q1 50 -26 109q-23 51 -109 94q-96 49 -199 49q-39 0 -93 -12t-104 -84t-50 -156z" />
<glyph unicode="S" horiz-adv-x="974" d="M2 387q6 2 23 2q45 0 219 -97t270 -97q63 0 113 30q57 37 96 117q33 68 33 123q0 123 -183 219q-166 80 -329 162q-119 76 -175.5 167t-56.5 189q0 96 50.5 185.5t136.5 156.5q31 25 109.5 44.5t160.5 19.5q156 0 248 -62q117 -78 117 -241q-125 51 -236 88 q-125 43 -205 43q-90 0 -137 -45q-57 -55 -57 -174q0 -137 129 -213q16 -10 274 -113q180 -72 252 -176q41 -59 61.5 -124t20.5 -124q0 -139 -90 -251t-232 -159q-95 -32 -186 -32h-6q-168 0 -282.5 100t-137.5 262z" />
<glyph unicode="T" horiz-adv-x="864" d="M4 1436q0 37 80 61.5t225 44.5q162 -8 244 -14q246 -20 260 -51q10 -25 10 -39q0 -29 -144 -106t-173 -249q-14 -82 -18.5 -174t-4.5 -256l2 -575q-9 -1 -18 -1q-75 -1 -105 63q-34 70 -34 214q0 68 8 191q18 274 18 362q0 207 -33.5 273.5t-185.5 142.5 q-131 68 -131 113z" />
<glyph unicode="U" horiz-adv-x="1097" d="M0 1155q0 127 14.5 220t51.5 161q78 -25 110 -117q27 -78 27 -217q0 -76 -12.5 -241.5t-12.5 -247.5q0 -211 60 -314q76 -131 264 -131q229 0 311 277q49 168 57.5 542.5t47.5 448.5q78 -25 110 -98q27 -61 26 -176q0 -57 -7 -164q-19 -238 -19 -326q0 -272 -106 -459 q-123 -215 -355 -241q-18 -2 -38.5 -3t-30.5 -1q-180 0 -285 127q-84 102 -129 303q-31 180 -61 360q-8 45 -15.5 132t-7.5 165z" />
<glyph unicode="V" horiz-adv-x="1011" d="M0 1403q0 16 3 34.5t11 45.5q141 -76 191 -312q31 -197 63 -393q49 -192 193 -192h2q20 0 31 2q164 16 217 215q31 193 63 387q49 230 201 293q4 -20 4 -39q0 -78 -38 -225.5t-140 -456.5q-147 -440 -198.5 -548t-108.5 -108q-100 0 -177 250l-106 406q-66 195 -129 366 q-82 219 -82 275z" />
<glyph unicode="W" horiz-adv-x="1568" d="M2 1446q125 0 168 -176q27 -164 53 -328q37 -176 148 -176q16 0 24 2q125 16 170 113q31 66 31 209q0 31 -1 63.5t-1 65.5q0 117 20 176q29 84 109 116q49 18 84 19q92 0 119 -152q18 -156 37 -309q33 -184 133 -235q53 -27 90 -27q86 0 125 151q31 150 63 299 q49 174 158 209q0 -70 -59 -364q-51 -256 -113 -529q-51 -233 -68 -286q-29 -100 -51 -140q-31 -53 -70 -53q-35 0 -75 39q-20 16 -46 109.5t-42 175.5q-27 172 -52 344q-45 180 -188 180q-162 0 -203 -260q-20 -133 -39 -264q-41 -184 -77 -252q-12 -23 -31 -33 q-51 -24 -78 -24h-2q-49 0 -72 77q-10 33 -24 101q-166 686 -211 913q-29 145 -29 246z" />
<glyph unicode="X" horiz-adv-x="921" d="M6 168q0 76 133 266.5t133 372.5q0 145 -109.5 370.5t-109.5 280.5q0 18 2 27q102 -29 221 -213q47 -72 150 -72q125 0 219 96q121 123 174 146q-102 -213 -160 -355q-63 -154 -63 -249q0 -37 4 -54q14 -68 207 -397q78 -133 78 -258q-98 0 -176 111q-169 239 -259 239 h-1q-102 0 -183 -86q-236 -254 -256 -264q-4 25 -4 39z" />
<glyph unicode="Y" horiz-adv-x="942" d="M2 1386q0 49 41 105q100 -66 174 -199q119 -217 240 -217q131 0 233 150q137 200 205 243q4 -16 4 -51q0 -94 -96 -276q-135 -258 -182 -393q-98 -285 -99 -613q-16 -2 -24 -2q-127 0 -136.5 283.5t-35.5 351.5q-66 164 -152 305q-61 92 -123 187q-49 78 -49 126z" />
<glyph unicode="Z" horiz-adv-x="942" d="M6 182q0 74 53 164q61 84 70 98q57 90 213 330q121 184 139 215q49 78 64 111q43 104 43 166q0 113 -193 153q-123 25 -243 51q12 84 77.5 116t169.5 32q47 0 149.5 -8t149.5 -8q111 0 158 -32t47 -93q0 -80 -84 -222q-33 -55 -100 -155q-160 -240 -273.5 -424t-120 -213 t-6.5 -57q0 -174 269 -211q104 -15 262 -15q4 -25 4 -33q0 -76 -84 -110q-70 -29 -195 -29q-59 0 -117.5 5t-106.5 12.5t-75.5 7.5h-42.5q-96 0 -127 8q-61 16 -86 74q-14 31 -14 67z" />
<glyph unicode="a" horiz-adv-x="823" d="M6 494q0 100 81 200.5t214 152.5t193 107q51 47 51 101q0 37 -27 75q-33 47 -64.5 67t-68.5 20q-18 0 -139 -27q-66 -14 -113 -14q23 94 104.5 148t186.5 54q78 0 137 -28q219 -101 219 -504q0 -84 1 -171t3 -177q0 -78 -8 -110t-42 -69.5t-133 -50t-247 -12.5h-98 q-127 25 -188.5 87.5t-61.5 150.5zM223 563q0 -55 46 -97t124 -42q29 0 60 6q55 12 80.5 42t25.5 71q0 61 -50 113.5t-120 52.5q-37 0 -67 -15q-98 -45 -99 -131z" />
<glyph unicode="b" horiz-adv-x="856" d="M2 1214q0 156 23 236q12 49 51 74q43 0 92 -68q63 -100 106 -162q274 -51 398 -184q59 -65 108 -215q37 -111 37 -225q0 -193 -92 -338q-98 -158 -272 -203q-115 -33 -185 -33q-127 0 -186 84t-59 266q0 102 18 238q-23 182 -31 303t-8 227zM172 696q0 -152 66.5 -262 t189.5 -110q17 2 25 2q102 10 151 92t49 203q0 160 -71 288q-78 139 -187 140q-18 0 -28 -2q-92 -16 -143.5 -118t-51.5 -233z" />
<glyph unicode="c" horiz-adv-x="692" d="M4 752q0 287 129 454q115 147 270 148q90 0 160 -54.5t96 -154.5l-438 -74q-108 -45 -108 -294q0 -222 57 -314q49 -80 152 -80q59 0 153 27.5t184 56.5q0 -113 -81 -178q-74 -59 -185 -60q-84 0 -149 41q-104 61 -168 181q-72 133 -72 301z" />
<glyph unicode="d" horiz-adv-x="839" d="M0 641q0 55 8 110.5t23 114.5q51 195 141 279q100 94 315 125q74 45 162 198q39 68 64 76q49 -47 68.5 -129t19.5 -194q0 -72 -8 -191q-19 -266 -19 -338q0 -80 2 -163t6 -173q0 -160 -108 -196q-43 -14 -271 -58q-203 41 -309 197q-94 139 -94 342zM154 705 q0 -158 61 -267q70 -123 191 -123q11 0 40 4q98 18 145.5 97.5t47.5 193.5q0 158 -80 296t-192 138q-18 0 -29 -2q-88 -14 -136 -111t-48 -226z" />
<glyph unicode="e" horiz-adv-x="868" d="M2 791q0 227 111 389q121 178 315 178q121 0 219.5 -84t151.5 -244q31 -90 30 -158q0 -78 -47 -108q-37 -25 -112 -25q-47 0 -90 6q-14 0 -33 2.5t-37 2.5q-131 0 -203 -60q-63 -53 -63 -131q0 -31 8 -53q23 -66 64.5 -94.5t99.5 -28.5q59 0 139 25.5t156 52.5 q0 -111 -71 -173.5t-179 -62.5q-131 0 -244 84q-127 94 -182 262q-33 98 -33 220zM319 1090q0 -41 35.5 -78t94.5 -47q8 -2 24 -2q63 0 64 63q0 47 -35 88q-41 47 -96 47q-43 0 -65 -19.5t-22 -51.5z" />
<glyph unicode="f" horiz-adv-x="397" d="M2 1028q0 186 99.5 350t199.5 164q17 0 33 -6q16 -49 16 -86q0 -49 -19.5 -110.5t-37.5 -122.5q67 -101 67 -156q0 -37 -24 -74q-82 -125 -98 -172q-8 -33 -10.5 -140.5t-2.5 -131.5v-146q0 -141 -5 -207.5t-25 -74.5l-66 -25q-33 45 -44 97.5t-11 123.5q0 72 2 121t4 92 q0 94 -9.5 168t-39 159t-29.5 177z" />
<glyph unicode="g" horiz-adv-x="831" d="M2 1051q0 203 94 354q102 164 277 192q72 12 129 13q178 0 248 -123q55 -96 55 -305q0 -70 -8.5 -223.5t-8.5 -235.5v-115q0 -178 -20 -258q-33 -125 -133 -219q-57 -53 -123 -79.5t-129 -26.5q-88 0 -160.5 46t-111.5 126q8 2 34 2q31 0 105 -5.5t94 -5.5q90 0 133 19 q59 25 60 88q0 20 -11 55q-25 76 -170 119q-166 49 -268 231q-86 158 -86 351zM141 999q0 -131 58 -211q68 -92 198 -92h23q12 0 41 4q115 16 172 84q51 59 51 152q0 152 -112.5 309.5t-215.5 157.5q-10 0 -26 -4q-76 -20 -132.5 -141t-56.5 -259z" />
<glyph unicode="h" horiz-adv-x="815" d="M0 1081q0 145 12.5 242.5t42.5 128.5q98 -23 145 -176q23 -72 72 -86q102 -29 207 -55q145 -45 209 -127q29 -35 58.5 -217.5t29.5 -344.5q0 -133 -20.5 -214t-67.5 -93q-39 6 -51 59.5t-12 159.5v79t2 81q0 258 -68 350q-57 80 -176 80q-139 0 -190 -211 q-23 -92 -37.5 -347t-61.5 -255q-6 0 -18 4q-7 -2 -13 -2q-31 -1 -45 51q-16 62 -16 189q0 61 4 221t4 176q-4 57 -4 94q-6 147 -6 213z" />
<glyph unicode="i" horiz-adv-x="200" d="M0 868q0 156 15.5 262.5t50.5 116.5q59 -45 79.5 -100t20.5 -129q0 -35 -2 -72t-4 -72q0 -31 2 -104.5t2 -112.5q0 -121 -17 -178q-23 -78 -81 -86q-23 68 -46 137q-20 154 -20 338z" />
<glyph unicode="j" horiz-adv-x="299" d="M6 131v23q35 115 63.5 233.5t28.5 290.5q0 111 -2 268.5t-2 204.5q0 154 13.5 230.5t52.5 125.5q11 3 21 3q40 0 57 -54q20 -67 20 -221q0 -63 -4 -236.5t-4 -212.5v-82.5t2 -87.5q0 -295 -43 -398t-127 -103q-37 0 -76 16z" />
<glyph unicode="k" horiz-adv-x="704" d="M0 467q0 78 5 234.5t5 199.5q0 403 6.5 464.5t38.5 115.5q100 -31 102.5 -258.5t155.5 -227.5q92 0 238 52q12 0 8 -13q-37 -102 -104 -317q47 -176 106 -309q51 -115 105 -230q-1 -17 -19 -33q-121 0 -166 82q-53 98 -139 123q-27 8 -51 8q-45 0 -103 -104 q-43 -76 -100 -131q-51 35 -69.5 118t-18.5 226z" />
<glyph unicode="l" horiz-adv-x="208" d="M0 506q0 43 2 149.5t2 167.5q0 100 -1 187.5t-1 160.5q0 154 10.5 196t59.5 87q66 -35 78.5 -61.5t13.5 -155.5q0 -55 -2 -198.5t-2 -192.5q0 -131 3 -246t7 -213q0 -109 -13.5 -153t-56.5 -44q-18 0 -28 5q-41 27 -56.5 104.5t-15.5 206.5z" />
<glyph unicode="m" horiz-adv-x="1359" d="M-2 1018q0 143 102 207q84 51 240 51q68 0 121 -6t142 -18.5t156.5 -15.5t102.5 -3q53 0 93 2t79 4q86 0 134.5 -39t113.5 -182q16 -35 26.5 -158t10.5 -248q0 -154 -12 -247q-21 -50 -41 -99q-10 -2 -19 -2q-33 0 -47 31q-18 39 -18 119q0 37 6 129t6 141q0 143 -35 217 q-45 98 -162 117q-33 4 -47 4q-131 0 -166 -164q-8 -43 -16 -281.5t-72 -277.5q-16 -10 -32 -10q-49 0 -62 188q-20 297 -33 352q-41 188 -157 189q-31 2 -37 2q-129 0 -176 -191q-20 -84 -36 -316t-59 -232q-18 0 -38 18l-54 180q-14 180 -14 539z" />
<glyph unicode="n" horiz-adv-x="847" d="M0 907q0 213 82 287q55 49 240 86q39 6 54 8t48 2q203 0 301 -192q80 -158 80 -422q0 -176 -33 -336l-57 -49q-66 29 -71 279.5t-19 310.5q-45 182 -213 182q-147 0 -199 -182q-25 -86 -34 -310.5t-48 -230.5l-45 -49q-41 10 -55.5 100t-14.5 277q-16 152 -16 239z" />
<glyph unicode="o" horiz-adv-x="942" d="M12 891q0 172 82 291q94 135 279 176q59 12 108 12q199 0 314 -182q102 -162 102 -400q0 -221 -88 -378q-98 -177 -266 -177q-16 -2 -23 -2q-205 0 -360 213q-147 203 -148 447zM162 809q0 -156 74 -264q82 -121 219 -121q30 0 75 10q121 29 185 125q57 86 57 205 q0 160 -92 290t-227 130q-27 0 -58 -6q-113 -27 -173 -131.5t-60 -237.5z" />
<glyph unicode="p" horiz-adv-x="884" d="M2 451q0 150 25 364q4 25 4 51.5v42.5q0 72 -4 129q-14 203 -15 209q0 125 31 187q39 80 141 102q63 14 131 14q231 0 385 -176q145 -166 146 -387q0 -20 -1 -36.5t-9 -67.5q-55 -279 -147.5 -381.5t-377.5 -202.5q-51 -37 -90 -111q-66 -125 -100 -125q-6 0 -23 5 q-96 96 -96 383zM137 995q0 -150 75 -261t206 -111q39 0 82 12q109 31 162 113.5t53 189.5q0 154 -88 274q-94 129 -224 129h-25t-36 -8q-98 -27 -151.5 -123t-53.5 -215z" />
<glyph unicode="q" horiz-adv-x="888" d="M4 961q0 223 102 395q116 194 304 194h2q254 0 344 -129q69 -97 69 -323v-6q0 -109 -2 -179t-4 -129q12 -104 23.5 -208.5t11.5 -176.5q0 -102 -12.5 -172.5t-46.5 -136.5q-2 -4 -2 -6q-10 -16 -31 -16q-33 0 -82 43q-68 57 -160 188q-184 66 -272 135q-150 119 -219 350 q-25 78 -25 177zM168 918q0 -145 45 -230q55 -102 166 -102q45 0 100 18q96 33 141.5 94.5t45.5 141.5q0 160 -148 340q-121 148 -198 148q-11 0 -21 -3q-49 -16 -90 -142t-41 -265z" />
<glyph unicode="r" horiz-adv-x="442" d="M8 860q0 266 34 358.5t165 137.5q18 6 49 6q57 0 96 -25q51 -33 51 -92q0 -6 -124 -184q-68 -96 -93 -227q-12 -61 -16 -107.5t-4 -87.5q0 -43 5 -93t5 -54q0 -31 -6 -55.5t-29 -67.5h-82q-37 80 -41 114q-10 74 -10 377z" />
<glyph unicode="s" horiz-adv-x="737" d="M4 1106q0 137 164 244q56 36 135 36h4q96 0 180 -49t84 -104q0 -16 -8 -31q-12 -10 -153 -49q-113 -31 -113 -78q0 -23 21.5 -50.5t76.5 -68.5q129 -94 176 -143q121 -127 121 -260q0 -172 -114 -262q-98 -78 -236 -78q-115 0 -204 55.5t-89 128.5q0 23 8 41q41 0 117 -5 t90 -5q84 0 125 23q53 29 53 100q-2 14 -2 22q-6 66 -84 121q-248 180 -276 217q-76 98 -76 195z" />
<glyph unicode="t" horiz-adv-x="393" d="M2 1180q0 43 13.5 80.5t45.5 74.5q14 37 34 77t59 67q74 -27 102 -58q39 -43 39 -127q31 -25 44 -56.5t13 -68.5q0 -45 -17.5 -86t-39.5 -59q-25 -59 -36 -107.5t-21.5 -129t-10.5 -134.5q0 -129 39 -239.5t82 -223.5q0 -25 -6.5 -40t-26.5 -35q-18 -2 -26 -2 q-123 0 -172 125q-35 90 -35 276q0 66 2 127t4 121q0 80 -27 174q-59 211 -59 244z" />
<glyph unicode="u" horiz-adv-x="831" d="M4 1006q0 174 25 251q15 48 38 48q5 0 11 -2q59 -16 84 -91q18 -57 18 -170q0 -29 -2 -92t-2 -96q0 -150 27 -221q37 -98 137 -111q12 -2 23.5 -2h23.5q172 0 229 211q27 94 41 383q33 84 68 170q39 0 54 -109.5t14 -271.5v-29v-24q0 -39 -1 -72t-1 -61q0 -264 -72 -342 q-55 -59 -232 -60h-100q-203 0 -291 146q-80 131 -80 391q-12 41 -12 154z" />
<glyph unicode="v" horiz-adv-x="655" d="M2 1214q16 4 21 5q23 0 97 -147.5t208 -147.5q131 0 188 149q70 181 80 187q18 -18 18 -97q0 -201 -96 -504q-102 -321 -189 -321h-1q-78 0 -138 123q-45 96 -94 316t-94 437z" />
<glyph unicode="w" horiz-adv-x="1138" d="M0 1077q0 39 10 45q39 -10 115 -84.5t123 -74.5q20 0 33 4q29 10 62.5 43.5t84.5 179.5q39 113 117 113q82 0 133 -113q66 -145 117 -180t88 -35q43 0 90 61q70 93 90 109q37 -8 37 -101q0 -94 -37 -268q-14 -68 -68 -280q-27 -106 -53 -158q-35 -66 -84 -66 q-31 0 -65 23q-45 29 -105 145q-51 100 -121 109q-6 1 -13 1q-56 0 -108 -65q-63 -96 -127 -190q-20 -10 -45 -10q-63 0 -116 82q-41 61 -62.5 151t-58.5 285.5t-37 273.5z" />
<glyph unicode="x" horiz-adv-x="643" d="M6 352q43 113 78 220.5t35 215.5q0 98 -21.5 193.5t-81.5 216.5q12 18 25.5 24.5t30.5 6.5q4 0 114 -43q57 -23 109 -23q47 0 106.5 17.5t128.5 58.5q37 -29 37 -63q-31 -94 -53 -185q-29 -111 -29 -215q0 -55 37 -151q80 -211 80 -256q0 -22 -6 -45q-100 14 -169 48 t-105 34q-47 0 -105.5 -15.5t-200.5 -66.5q-10 14 -10 28z" />
<glyph unicode="y" horiz-adv-x="651" d="M2 1499h1q18 0 86 -143q71 -150 206 -150q104 0 192 150q62 104 101 143q23 0 22 -41q0 -53 -53 -239q-63 -221 -127 -441q-23 -78 -43 -155q-57 -178 -131 -293q-100 -158 -209 -158q-4 10 -6 20.5t-2 20.5q0 33 82 137q47 59 61.5 114.5t14.5 113.5q0 100 -50 249 q-90 276 -94 289q-51 195 -51 383z" />
<glyph unicode="z" horiz-adv-x="753" d="M0 406q0 63 63 151q23 31 246 297q92 111 92 176q0 53 -47 120t-161 181q-2 5 -2 9q0 28 85 57q99 33 203 33q43 0 61.5 -3.5t41.5 -13.5q131 -63 131 -160q0 -47 -24.5 -93t-76.5 -103q-123 -139 -182 -228q-74 -109 -74 -172q0 -20 4 -30q35 -186 218 -219 q84 -14 94 -86q-43 -47 -132 -73t-198 -26q-143 0 -236 43q-106 49 -106 140z" />
<glyph unicode="&#xa0;" />
<glyph unicode="&#x2000;" horiz-adv-x="821" />
<glyph unicode="&#x2001;" horiz-adv-x="1642" />
<glyph unicode="&#x2002;" horiz-adv-x="821" />
<glyph unicode="&#x2003;" horiz-adv-x="1642" />
<glyph unicode="&#x2004;" horiz-adv-x="547" />
<glyph unicode="&#x2005;" horiz-adv-x="410" />
<glyph unicode="&#x2006;" horiz-adv-x="273" />
<glyph unicode="&#x2007;" horiz-adv-x="273" />
<glyph unicode="&#x2008;" horiz-adv-x="205" />
<glyph unicode="&#x2009;" horiz-adv-x="328" />
<glyph unicode="&#x200a;" horiz-adv-x="91" />
<glyph unicode="&#x202f;" horiz-adv-x="328" />
<glyph unicode="&#x205f;" horiz-adv-x="410" />
<glyph unicode="&#xe000;" horiz-adv-x="1239" d="M0 0v1239h1239v-1239h-1239z" />
</font>
</defs>
</svg>
